<mxfile host="app.diagrams.net" modified="2023-01-09T13:29:35.524Z" agent="5.0 (Windows NT 10.0; Win64; x64) AppleWebKit/537.36 (KHTML, like Gecko) Chrome/96.0.4664.45 Safari/537.36" etag="lGEV7-8FMsM4Rj07Peut" version="20.8.3" type="github">
  <diagram id="rjo74vok-zISJOvy7XTI" name="第 1 页">
    <mxGraphModel dx="1305" dy="319" grid="0" gridSize="10" guides="1" tooltips="1" connect="1" arrows="1" fold="1" page="0" pageScale="1" pageWidth="827" pageHeight="1169" math="0" shadow="0">
      <root>
        <mxCell id="0" />
        <mxCell id="1" parent="0" />
        <mxCell id="yg6qJDh1cPCUDTVsvtTC-190" value="" style="rounded=1;whiteSpace=wrap;html=1;shadow=0;glass=0;sketch=0;fontSize=5;fillColor=#FCFCFC;arcSize=6;" vertex="1" parent="1">
          <mxGeometry x="-464" y="5.84" width="302.53" height="30" as="geometry" />
        </mxCell>
        <mxCell id="yg6qJDh1cPCUDTVsvtTC-159" value="" style="rounded=1;whiteSpace=wrap;html=1;shadow=0;glass=0;sketch=0;fontSize=5;fillColor=#FCFCFC;arcSize=6;" vertex="1" parent="1">
          <mxGeometry x="-624" y="311.84" width="624" height="170" as="geometry" />
        </mxCell>
        <mxCell id="tUKbnSFkeA9dqwj0QO37-302" style="edgeStyle=orthogonalEdgeStyle;rounded=1;orthogonalLoop=1;jettySize=auto;html=1;entryX=0.5;entryY=0;entryDx=0;entryDy=0;fontSize=8;endArrow=classic;endFill=1;" parent="1" source="tUKbnSFkeA9dqwj0QO37-298" target="tUKbnSFkeA9dqwj0QO37-287" edge="1">
          <mxGeometry relative="1" as="geometry" />
        </mxCell>
        <mxCell id="tUKbnSFkeA9dqwj0QO37-298" value="" style="rounded=1;whiteSpace=wrap;html=1;shadow=0;glass=0;sketch=0;fontSize=5;fillColor=#FCFCFC;arcSize=25;" parent="1" vertex="1">
          <mxGeometry x="477" y="129.84" width="146" height="26" as="geometry" />
        </mxCell>
        <mxCell id="tUKbnSFkeA9dqwj0QO37-283" style="edgeStyle=orthogonalEdgeStyle;rounded=1;orthogonalLoop=1;jettySize=auto;html=1;exitX=0.5;exitY=1;exitDx=0;exitDy=0;entryX=0.5;entryY=0;entryDx=0;entryDy=0;fontSize=8;endArrow=classic;endFill=1;" parent="1" target="tUKbnSFkeA9dqwj0QO37-48" edge="1">
          <mxGeometry relative="1" as="geometry">
            <mxPoint x="244" y="289.5900000000003" as="sourcePoint" />
          </mxGeometry>
        </mxCell>
        <mxCell id="yg6qJDh1cPCUDTVsvtTC-1" style="edgeStyle=orthogonalEdgeStyle;rounded=0;orthogonalLoop=1;jettySize=auto;html=1;exitX=0.5;exitY=1;exitDx=0;exitDy=0;fontSize=10;" edge="1" parent="1" source="tUKbnSFkeA9dqwj0QO37-219">
          <mxGeometry relative="1" as="geometry">
            <mxPoint x="245" y="264.36363081498575" as="targetPoint" />
          </mxGeometry>
        </mxCell>
        <mxCell id="tUKbnSFkeA9dqwj0QO37-219" value="" style="rounded=1;whiteSpace=wrap;html=1;shadow=0;glass=0;sketch=0;fontSize=5;fillColor=#FCFCFC;arcSize=6;" parent="1" vertex="1">
          <mxGeometry x="50" y="96" width="390" height="151" as="geometry" />
        </mxCell>
        <mxCell id="tUKbnSFkeA9dqwj0QO37-48" value="" style="rounded=1;whiteSpace=wrap;html=1;shadow=0;glass=0;sketch=0;fontSize=5;fillColor=#FCFCFC;arcSize=6;" parent="1" vertex="1">
          <mxGeometry x="49" y="317.43" width="390" height="232" as="geometry" />
        </mxCell>
        <mxCell id="tUKbnSFkeA9dqwj0QO37-85" style="edgeStyle=orthogonalEdgeStyle;rounded=1;orthogonalLoop=1;jettySize=auto;html=1;entryX=0.5;entryY=0;entryDx=0;entryDy=0;fontSize=17;" parent="1" source="tUKbnSFkeA9dqwj0QO37-31" target="tUKbnSFkeA9dqwj0QO37-55" edge="1">
          <mxGeometry relative="1" as="geometry" />
        </mxCell>
        <mxCell id="tUKbnSFkeA9dqwj0QO37-31" value="&lt;font style=&quot;font-size: 11px;&quot;&gt;&lt;span style=&quot;font-size: 11px;&quot;&gt;材质参数转化为&lt;/span&gt;&lt;b style=&quot;font-size: 11px;&quot;&gt;Surface_Data&lt;/b&gt;&lt;/font&gt;" style="rounded=0;whiteSpace=wrap;html=1;fontSize=12;glass=0;strokeWidth=1;shadow=1;" parent="1" vertex="1">
          <mxGeometry x="99" y="474.43" width="320" height="20" as="geometry" />
        </mxCell>
        <mxCell id="tUKbnSFkeA9dqwj0QO37-135" style="edgeStyle=orthogonalEdgeStyle;rounded=1;orthogonalLoop=1;jettySize=auto;html=1;entryX=0.5;entryY=0;entryDx=0;entryDy=0;fontSize=12;" parent="1" source="tUKbnSFkeA9dqwj0QO37-43" target="tUKbnSFkeA9dqwj0QO37-87" edge="1">
          <mxGeometry relative="1" as="geometry" />
        </mxCell>
        <mxCell id="tUKbnSFkeA9dqwj0QO37-43" value="G-Buffer" style="rounded=1;whiteSpace=wrap;html=1;shadow=0;glass=0;sketch=0;fontSize=5;fillColor=#f5f5f5;fontColor=#333333;strokeColor=#666666;" parent="1" vertex="1">
          <mxGeometry x="120.25" y="649.4399999999999" width="120" height="20" as="geometry" />
        </mxCell>
        <mxCell id="B5aVXFW-BJuEiM90mPMr-1" style="edgeStyle=orthogonalEdgeStyle;rounded=0;orthogonalLoop=1;jettySize=auto;html=1;entryX=0;entryY=0.5;entryDx=0;entryDy=0;" parent="1" source="tUKbnSFkeA9dqwj0QO37-46" target="tUKbnSFkeA9dqwj0QO37-68" edge="1">
          <mxGeometry relative="1" as="geometry" />
        </mxCell>
        <mxCell id="tUKbnSFkeA9dqwj0QO37-46" value="光照计算" style="rounded=0;whiteSpace=wrap;html=1;fontSize=12;glass=0;strokeWidth=1;shadow=1;" parent="1" vertex="1">
          <mxGeometry x="122.75" y="729.43" width="115" height="20" as="geometry" />
        </mxCell>
        <mxCell id="yg6qJDh1cPCUDTVsvtTC-13" style="edgeStyle=orthogonalEdgeStyle;rounded=0;orthogonalLoop=1;jettySize=auto;html=1;exitX=0.5;exitY=1;exitDx=0;exitDy=0;entryX=0.5;entryY=0;entryDx=0;entryDy=0;entryPerimeter=0;fontSize=10;" edge="1" parent="1" source="tUKbnSFkeA9dqwj0QO37-47" target="yg6qJDh1cPCUDTVsvtTC-11">
          <mxGeometry relative="1" as="geometry">
            <Array as="points">
              <mxPoint x="298" y="630" />
              <mxPoint x="298" y="650" />
            </Array>
          </mxGeometry>
        </mxCell>
        <mxCell id="tUKbnSFkeA9dqwj0QO37-47" value="光照计算" style="rounded=0;whiteSpace=wrap;html=1;fontSize=12;glass=0;strokeWidth=1;shadow=1;" parent="1" vertex="1">
          <mxGeometry x="266.5" y="609.93" width="140" height="20.078699999999998" as="geometry" />
        </mxCell>
        <mxCell id="tUKbnSFkeA9dqwj0QO37-50" value="Fragment" style="text;html=1;strokeColor=none;fillColor=none;align=center;verticalAlign=middle;whiteSpace=wrap;rounded=0;shadow=0;glass=0;sketch=0;fontSize=5;rotation=270;" parent="1" vertex="1">
          <mxGeometry x="40.26" y="490.59000000000003" width="60" height="30" as="geometry" />
        </mxCell>
        <mxCell id="tUKbnSFkeA9dqwj0QO37-128" value="" style="edgeStyle=orthogonalEdgeStyle;rounded=1;orthogonalLoop=1;jettySize=auto;html=1;fontSize=12;exitX=0.5;exitY=1;exitDx=0;exitDy=0;" parent="1" source="tUKbnSFkeA9dqwj0QO37-55" target="tUKbnSFkeA9dqwj0QO37-127" edge="1">
          <mxGeometry relative="1" as="geometry">
            <mxPoint x="259" y="541.93" as="sourcePoint" />
          </mxGeometry>
        </mxCell>
        <mxCell id="tUKbnSFkeA9dqwj0QO37-55" value="&lt;b&gt;Surface_Data&lt;/b&gt;" style="rounded=1;whiteSpace=wrap;html=1;shadow=0;glass=0;sketch=0;fontSize=5;fillColor=#f5f5f5;fontColor=#333333;strokeColor=#666666;" parent="1" vertex="1">
          <mxGeometry x="99" y="509.42999999999995" width="320" height="20" as="geometry" />
        </mxCell>
        <mxCell id="B5aVXFW-BJuEiM90mPMr-5" style="edgeStyle=orthogonalEdgeStyle;rounded=0;orthogonalLoop=1;jettySize=auto;html=1;" parent="1" source="tUKbnSFkeA9dqwj0QO37-68" target="B5aVXFW-BJuEiM90mPMr-4" edge="1">
          <mxGeometry relative="1" as="geometry" />
        </mxCell>
        <mxCell id="tUKbnSFkeA9dqwj0QO37-68" value="场景颜色" style="rounded=1;whiteSpace=wrap;html=1;shadow=0;glass=0;sketch=0;fontSize=5;fillColor=#f5f5f5;fontColor=#333333;strokeColor=#666666;" parent="1" vertex="1">
          <mxGeometry x="276.61" y="729.43" width="120" height="21" as="geometry" />
        </mxCell>
        <mxCell id="tUKbnSFkeA9dqwj0QO37-136" style="edgeStyle=orthogonalEdgeStyle;rounded=1;orthogonalLoop=1;jettySize=auto;html=1;entryX=0.5;entryY=0;entryDx=0;entryDy=0;fontSize=12;" parent="1" source="tUKbnSFkeA9dqwj0QO37-81" target="tUKbnSFkeA9dqwj0QO37-43" edge="1">
          <mxGeometry relative="1" as="geometry" />
        </mxCell>
        <mxCell id="tUKbnSFkeA9dqwj0QO37-81" value="编码&lt;b style=&quot;font-size: 5px;&quot;&gt;Surface_Data&lt;/b&gt;" style="rounded=0;whiteSpace=wrap;html=1;fontSize=12;glass=0;strokeWidth=1;shadow=1;" parent="1" vertex="1">
          <mxGeometry x="111.5" y="609.93" width="137.5" height="20.078699999999998" as="geometry" />
        </mxCell>
        <mxCell id="tUKbnSFkeA9dqwj0QO37-91" style="edgeStyle=orthogonalEdgeStyle;rounded=1;orthogonalLoop=1;jettySize=auto;html=1;exitX=0.5;exitY=1;exitDx=0;exitDy=0;entryX=0.5;entryY=0;entryDx=0;entryDy=0;fontSize=17;" parent="1" source="tUKbnSFkeA9dqwj0QO37-87" target="tUKbnSFkeA9dqwj0QO37-46" edge="1">
          <mxGeometry relative="1" as="geometry" />
        </mxCell>
        <mxCell id="tUKbnSFkeA9dqwj0QO37-87" value="解码&lt;b style=&quot;font-size: 5px;&quot;&gt;Surface_Data&lt;/b&gt;" style="rounded=0;whiteSpace=wrap;html=1;fontSize=12;glass=0;strokeWidth=1;shadow=1;" parent="1" vertex="1">
          <mxGeometry x="111.5" y="689.43" width="137.5" height="20.078699999999998" as="geometry" />
        </mxCell>
        <mxCell id="tUKbnSFkeA9dqwj0QO37-96" style="edgeStyle=orthogonalEdgeStyle;rounded=1;orthogonalLoop=1;jettySize=auto;html=1;entryX=0.5;entryY=0;entryDx=0;entryDy=0;fontSize=17;" parent="1" source="tUKbnSFkeA9dqwj0QO37-97" target="tUKbnSFkeA9dqwj0QO37-100" edge="1">
          <mxGeometry relative="1" as="geometry" />
        </mxCell>
        <mxCell id="tUKbnSFkeA9dqwj0QO37-97" value="&lt;font style=&quot;font-size: 11px;&quot;&gt;图元数据转化为&lt;b style=&quot;font-size: 11px;&quot;&gt;Vertex_Data&lt;/b&gt;&lt;/font&gt;" style="rounded=0;whiteSpace=wrap;html=1;fontSize=12;glass=0;strokeWidth=1;shadow=1;" parent="1" vertex="1">
          <mxGeometry x="99" y="339.43" width="320" height="20" as="geometry" />
        </mxCell>
        <mxCell id="tUKbnSFkeA9dqwj0QO37-103" style="edgeStyle=orthogonalEdgeStyle;rounded=1;orthogonalLoop=1;jettySize=auto;html=1;exitX=0.5;exitY=1;exitDx=0;exitDy=0;entryX=0.5;entryY=0;entryDx=0;entryDy=0;fontSize=11;" parent="1" source="tUKbnSFkeA9dqwj0QO37-98" target="tUKbnSFkeA9dqwj0QO37-31" edge="1">
          <mxGeometry relative="1" as="geometry" />
        </mxCell>
        <mxCell id="tUKbnSFkeA9dqwj0QO37-98" value="空间变化/投影变化" style="rounded=0;whiteSpace=wrap;html=1;fontSize=12;glass=0;strokeWidth=1;shadow=1;" parent="1" vertex="1">
          <mxGeometry x="99" y="419.43" width="320" height="20.078699999999998" as="geometry" />
        </mxCell>
        <mxCell id="tUKbnSFkeA9dqwj0QO37-102" value="" style="edgeStyle=orthogonalEdgeStyle;rounded=1;orthogonalLoop=1;jettySize=auto;html=1;fontSize=11;" parent="1" source="tUKbnSFkeA9dqwj0QO37-100" target="tUKbnSFkeA9dqwj0QO37-98" edge="1">
          <mxGeometry relative="1" as="geometry" />
        </mxCell>
        <mxCell id="tUKbnSFkeA9dqwj0QO37-100" value="&lt;b style=&quot;color: rgb(0, 0, 0); font-size: 11px;&quot;&gt;Vertex_Data&lt;/b&gt;" style="rounded=1;whiteSpace=wrap;html=1;shadow=0;glass=0;sketch=0;fontSize=5;fillColor=#f5f5f5;fontColor=#333333;strokeColor=#666666;" parent="1" vertex="1">
          <mxGeometry x="99" y="379.43" width="320" height="20" as="geometry" />
        </mxCell>
        <mxCell id="tUKbnSFkeA9dqwj0QO37-113" value="是" style="text;html=1;strokeColor=none;fillColor=none;align=center;verticalAlign=middle;whiteSpace=wrap;rounded=0;shadow=0;glass=0;dashed=1;sketch=0;fontSize=12;" parent="1" vertex="1">
          <mxGeometry x="169" y="551.93" width="60" height="30" as="geometry" />
        </mxCell>
        <mxCell id="tUKbnSFkeA9dqwj0QO37-115" value="否" style="text;html=1;strokeColor=none;fillColor=none;align=center;verticalAlign=middle;whiteSpace=wrap;rounded=0;shadow=0;glass=0;dashed=1;sketch=0;fontSize=12;" parent="1" vertex="1">
          <mxGeometry x="289" y="551.93" width="60" height="30" as="geometry" />
        </mxCell>
        <mxCell id="tUKbnSFkeA9dqwj0QO37-118" value="" style="shape=curlyBracket;whiteSpace=wrap;html=1;rounded=1;flipH=1;labelPosition=right;verticalLabelPosition=middle;align=left;verticalAlign=middle;shadow=0;glass=0;sketch=0;strokeColor=#030303;fontSize=12;fillColor=default;rotation=-180;" parent="1" vertex="1">
          <mxGeometry x="79" y="334.43" width="20" height="120" as="geometry" />
        </mxCell>
        <mxCell id="tUKbnSFkeA9dqwj0QO37-119" value="" style="shape=curlyBracket;whiteSpace=wrap;html=1;rounded=1;flipH=1;labelPosition=right;verticalLabelPosition=middle;align=left;verticalAlign=middle;shadow=0;glass=0;sketch=0;strokeColor=#030303;fontSize=12;fillColor=default;rotation=-180;" parent="1" vertex="1">
          <mxGeometry x="79" y="469.43" width="20" height="70" as="geometry" />
        </mxCell>
        <mxCell id="tUKbnSFkeA9dqwj0QO37-129" style="edgeStyle=orthogonalEdgeStyle;rounded=1;orthogonalLoop=1;jettySize=auto;html=1;entryX=0.5;entryY=0;entryDx=0;entryDy=0;fontSize=12;exitX=0;exitY=0.5;exitDx=0;exitDy=0;exitPerimeter=0;" parent="1" source="tUKbnSFkeA9dqwj0QO37-127" target="tUKbnSFkeA9dqwj0QO37-81" edge="1">
          <mxGeometry relative="1" as="geometry" />
        </mxCell>
        <mxCell id="tUKbnSFkeA9dqwj0QO37-130" style="edgeStyle=orthogonalEdgeStyle;rounded=1;orthogonalLoop=1;jettySize=auto;html=1;entryX=0.5;entryY=0;entryDx=0;entryDy=0;fontSize=12;exitX=1;exitY=0.5;exitDx=0;exitDy=0;exitPerimeter=0;" parent="1" source="tUKbnSFkeA9dqwj0QO37-127" target="tUKbnSFkeA9dqwj0QO37-47" edge="1">
          <mxGeometry relative="1" as="geometry" />
        </mxCell>
        <mxCell id="tUKbnSFkeA9dqwj0QO37-127" value="延迟渲染" style="strokeWidth=1;html=1;shape=mxgraph.flowchart.decision;whiteSpace=wrap;rounded=1;shadow=0;glass=0;sketch=0;strokeColor=#030303;fontSize=12;fillColor=default;" parent="1" vertex="1">
          <mxGeometry x="209" y="561.93" width="100" height="30" as="geometry" />
        </mxCell>
        <mxCell id="tUKbnSFkeA9dqwj0QO37-139" value="" style="rounded=1;whiteSpace=wrap;html=1;shadow=0;glass=0;sketch=0;strokeColor=default;strokeWidth=1;fontSize=12;fillColor=none;rotation=-90;" parent="1" vertex="1">
          <mxGeometry x="34" y="495.59000000000003" width="71.25" height="20" as="geometry" />
        </mxCell>
        <mxCell id="tUKbnSFkeA9dqwj0QO37-162" value="Vertex/Geometry Shader" style="swimlane;fontStyle=1;align=center;verticalAlign=top;childLayout=stackLayout;horizontal=1;startSize=26;horizontalStack=0;resizeParent=1;resizeParentMax=0;resizeLast=0;collapsible=1;marginBottom=0;rounded=0;shadow=0;glass=0;sketch=0;strokeColor=default;strokeWidth=1;fontSize=10;fillColor=none;swimlaneFillColor=none;" parent="1" vertex="1">
          <mxGeometry x="57.87" y="116" width="192.13" height="120" as="geometry" />
        </mxCell>
        <mxCell id="tUKbnSFkeA9dqwj0QO37-163" value="宏定义（逻辑分支&amp;uniform声明）" style="text;strokeColor=none;fillColor=none;align=left;verticalAlign=top;spacingLeft=4;spacingRight=4;overflow=hidden;rotatable=0;points=[[0,0.5],[1,0.5]];portConstraint=eastwest;rounded=1;shadow=0;glass=0;sketch=0;strokeWidth=1;fontSize=10;noLabel=0;" parent="tUKbnSFkeA9dqwj0QO37-162" vertex="1">
          <mxGeometry y="26" width="192.13" height="26" as="geometry" />
        </mxCell>
        <mxCell id="tUKbnSFkeA9dqwj0QO37-164" value="" style="line;strokeWidth=1;fillColor=none;align=left;verticalAlign=middle;spacingTop=-1;spacingLeft=3;spacingRight=3;rotatable=0;labelPosition=right;points=[];portConstraint=eastwest;strokeColor=inherit;rounded=1;shadow=0;glass=0;sketch=0;fontSize=12;" parent="tUKbnSFkeA9dqwj0QO37-162" vertex="1">
          <mxGeometry y="52" width="192.13" height="8" as="geometry" />
        </mxCell>
        <mxCell id="tUKbnSFkeA9dqwj0QO37-165" value="自定义接口(primitve_to_vertex_data)" style="text;strokeColor=none;fillColor=none;align=left;verticalAlign=top;spacingLeft=4;spacingRight=4;overflow=hidden;rotatable=0;points=[[0,0.5],[1,0.5]];portConstraint=eastwest;rounded=1;shadow=0;glass=0;sketch=0;strokeWidth=1;fontSize=10;" parent="tUKbnSFkeA9dqwj0QO37-162" vertex="1">
          <mxGeometry y="60" width="192.13" height="26" as="geometry" />
        </mxCell>
        <mxCell id="tUKbnSFkeA9dqwj0QO37-209" value="" style="line;strokeWidth=1;fillColor=none;align=left;verticalAlign=middle;spacingTop=-1;spacingLeft=3;spacingRight=3;rotatable=0;labelPosition=right;points=[];portConstraint=eastwest;strokeColor=inherit;rounded=1;shadow=0;glass=0;sketch=0;fontSize=12;" parent="tUKbnSFkeA9dqwj0QO37-162" vertex="1">
          <mxGeometry y="86" width="192.13" height="8" as="geometry" />
        </mxCell>
        <mxCell id="tUKbnSFkeA9dqwj0QO37-208" value="uniform数据(材质参数)" style="text;strokeColor=none;fillColor=none;align=left;verticalAlign=top;spacingLeft=4;spacingRight=4;overflow=hidden;rotatable=0;points=[[0,0.5],[1,0.5]];portConstraint=eastwest;rounded=1;shadow=0;glass=0;sketch=0;strokeWidth=1;fontSize=10;" parent="tUKbnSFkeA9dqwj0QO37-162" vertex="1">
          <mxGeometry y="94" width="192.13" height="26" as="geometry" />
        </mxCell>
        <mxCell id="tUKbnSFkeA9dqwj0QO37-178" value="" style="shape=callout;whiteSpace=wrap;html=1;perimeter=calloutPerimeter;rounded=1;shadow=0;glass=0;sketch=0;strokeColor=default;strokeWidth=1;fontSize=13;fillColor=default;rotation=90;arcSize=0;" parent="1" vertex="1">
          <mxGeometry x="471.8" y="235" width="124.5" height="241.13" as="geometry" />
        </mxCell>
        <mxCell id="tUKbnSFkeA9dqwj0QO37-160" value="Vertex_Data" style="swimlane;childLayout=stackLayout;horizontal=1;startSize=30;horizontalStack=0;rounded=0;fontSize=9;fontStyle=1;strokeWidth=1;resizeParent=0;resizeLast=1;shadow=0;dashed=0;align=left;glass=0;sketch=0;strokeColor=default;fillColor=none;" parent="1" vertex="1">
          <mxGeometry x="567.14" y="311.98" width="70" height="100" as="geometry" />
        </mxCell>
        <mxCell id="tUKbnSFkeA9dqwj0QO37-161" value="World Position&#xa;World Normal&#xa;Clip Position&#xa;Vertex Color&#xa;...&#xa;" style="align=left;strokeColor=none;fillColor=none;spacingLeft=4;fontSize=9;verticalAlign=top;resizable=0;rotatable=0;part=1;rounded=1;shadow=0;glass=0;sketch=0;strokeWidth=1;" parent="tUKbnSFkeA9dqwj0QO37-160" vertex="1">
          <mxGeometry y="30" width="70" height="70" as="geometry" />
        </mxCell>
        <mxCell id="tUKbnSFkeA9dqwj0QO37-183" style="edgeStyle=orthogonalEdgeStyle;rounded=1;orthogonalLoop=1;jettySize=auto;html=1;exitX=0.5;exitY=1;exitDx=0;exitDy=0;fontSize=9;" parent="tUKbnSFkeA9dqwj0QO37-160" edge="1">
          <mxGeometry relative="1" as="geometry">
            <mxPoint x="35" y="76.5" as="sourcePoint" />
            <mxPoint x="35" y="76.5" as="targetPoint" />
          </mxGeometry>
        </mxCell>
        <mxCell id="tUKbnSFkeA9dqwj0QO37-230" style="edgeStyle=orthogonalEdgeStyle;rounded=1;orthogonalLoop=1;jettySize=auto;html=1;exitX=1;exitY=0.25;exitDx=0;exitDy=0;entryX=0;entryY=0.25;entryDx=0;entryDy=0;fontSize=11;endArrow=block;endFill=0;" parent="1" source="tUKbnSFkeA9dqwj0QO37-180" target="tUKbnSFkeA9dqwj0QO37-160" edge="1">
          <mxGeometry relative="1" as="geometry" />
        </mxCell>
        <mxCell id="tUKbnSFkeA9dqwj0QO37-180" value="图元数据" style="swimlane;childLayout=stackLayout;horizontal=1;startSize=30;horizontalStack=0;rounded=0;fontSize=10;fontStyle=0;strokeWidth=1;resizeParent=0;resizeLast=1;shadow=0;dashed=0;align=left;glass=0;sketch=0;strokeColor=default;fillColor=none;" parent="1" vertex="1">
          <mxGeometry x="468.62" y="311.42999999999995" width="60" height="100" as="geometry" />
        </mxCell>
        <mxCell id="tUKbnSFkeA9dqwj0QO37-181" value="Position&#xa;Normal&#xa;UV&#xa;Color&#xa;...&#xa;&#xa;" style="align=left;strokeColor=none;fillColor=none;spacingLeft=4;fontSize=9;verticalAlign=top;resizable=0;rotatable=0;part=1;rounded=1;shadow=0;glass=0;sketch=0;strokeWidth=1;" parent="tUKbnSFkeA9dqwj0QO37-180" vertex="1">
          <mxGeometry y="30" width="60" height="70" as="geometry" />
        </mxCell>
        <mxCell id="tUKbnSFkeA9dqwj0QO37-194" value="" style="shape=callout;whiteSpace=wrap;html=1;perimeter=calloutPerimeter;rounded=1;shadow=0;glass=0;sketch=0;strokeColor=default;strokeWidth=1;fontSize=13;fillColor=default;rotation=90;arcSize=0;" parent="1" vertex="1">
          <mxGeometry x="469.5" y="369.25" width="131.10209999999998" height="241.33809999999997" as="geometry" />
        </mxCell>
        <mxCell id="tUKbnSFkeA9dqwj0QO37-188" value="Surface_Data" style="swimlane;childLayout=stackLayout;horizontal=1;startSize=30;horizontalStack=0;rounded=0;fontSize=9;fontStyle=1;strokeWidth=1;resizeParent=0;resizeLast=1;shadow=0;dashed=0;align=left;glass=0;sketch=0;strokeColor=default;fillColor=none;" parent="1" vertex="1">
          <mxGeometry x="567.14" y="445.43" width="70" height="110.88" as="geometry" />
        </mxCell>
        <mxCell id="tUKbnSFkeA9dqwj0QO37-189" value="Base Color&#xa;Normal&#xa;Metallic&#xa;Roughness&#xa;Specular&#xa;...&#xa;" style="align=left;strokeColor=none;fillColor=none;spacingLeft=4;fontSize=9;verticalAlign=top;resizable=0;rotatable=0;part=1;rounded=1;shadow=0;glass=0;sketch=0;strokeWidth=1;" parent="tUKbnSFkeA9dqwj0QO37-188" vertex="1">
          <mxGeometry y="30" width="70" height="80.88" as="geometry" />
        </mxCell>
        <mxCell id="tUKbnSFkeA9dqwj0QO37-190" style="edgeStyle=orthogonalEdgeStyle;rounded=1;orthogonalLoop=1;jettySize=auto;html=1;exitX=0.5;exitY=1;exitDx=0;exitDy=0;fontSize=9;" parent="tUKbnSFkeA9dqwj0QO37-188" source="tUKbnSFkeA9dqwj0QO37-189" target="tUKbnSFkeA9dqwj0QO37-189" edge="1">
          <mxGeometry relative="1" as="geometry" />
        </mxCell>
        <mxCell id="tUKbnSFkeA9dqwj0QO37-247" style="edgeStyle=orthogonalEdgeStyle;rounded=1;orthogonalLoop=1;jettySize=auto;html=1;exitX=1;exitY=0.25;exitDx=0;exitDy=0;fontSize=11;endArrow=block;endFill=0;entryX=0.009;entryY=0.223;entryDx=0;entryDy=0;entryPerimeter=0;" parent="1" source="tUKbnSFkeA9dqwj0QO37-191" target="tUKbnSFkeA9dqwj0QO37-188" edge="1">
          <mxGeometry relative="1" as="geometry">
            <mxPoint x="575.25" y="465.87" as="targetPoint" />
          </mxGeometry>
        </mxCell>
        <mxCell id="tUKbnSFkeA9dqwj0QO37-191" value="材质参数" style="swimlane;childLayout=stackLayout;horizontal=1;startSize=30;horizontalStack=0;rounded=0;fontSize=10;fontStyle=0;strokeWidth=1;resizeParent=0;resizeLast=1;shadow=0;dashed=0;align=left;glass=0;sketch=0;strokeColor=default;fillColor=none;" parent="1" vertex="1">
          <mxGeometry x="465.25" y="445.43" width="70" height="100" as="geometry" />
        </mxCell>
        <mxCell id="tUKbnSFkeA9dqwj0QO37-192" value="tex0 (texture)&#xa;tex1 (texture)&#xa;x0 (float)&#xa;x1 (vector3)&#xa;...&#xa;" style="align=left;strokeColor=none;fillColor=none;spacingLeft=4;fontSize=9;verticalAlign=top;resizable=0;rotatable=0;part=1;rounded=1;shadow=0;glass=0;sketch=0;strokeWidth=1;" parent="tUKbnSFkeA9dqwj0QO37-191" vertex="1">
          <mxGeometry y="30" width="70" height="70" as="geometry" />
        </mxCell>
        <mxCell id="tUKbnSFkeA9dqwj0QO37-195" value="" style="shape=callout;whiteSpace=wrap;html=1;perimeter=calloutPerimeter;rounded=1;shadow=0;glass=0;sketch=0;strokeColor=default;strokeWidth=1;fontSize=9;fillColor=default;rotation=90;position2=0.34;size=46;position=0.21;arcSize=0;" parent="1" vertex="1">
          <mxGeometry x="456.61" y="504.9599999999999" width="132.93" height="265" as="geometry" />
        </mxCell>
        <mxCell id="tUKbnSFkeA9dqwj0QO37-200" value="光照结果" style="swimlane;childLayout=stackLayout;horizontal=1;startSize=30;horizontalStack=0;rounded=0;fontSize=9;fontStyle=0;strokeWidth=1;resizeParent=0;resizeLast=1;shadow=0;dashed=0;align=left;glass=0;sketch=0;strokeColor=default;fillColor=none;" parent="1" vertex="1">
          <mxGeometry x="595.3699999999999" y="583.31" width="40" height="49.5" as="geometry" />
        </mxCell>
        <mxCell id="tUKbnSFkeA9dqwj0QO37-201" value="RGBA" style="align=left;strokeColor=none;fillColor=none;spacingLeft=4;fontSize=9;verticalAlign=top;resizable=0;rotatable=0;part=1;rounded=1;shadow=0;glass=0;sketch=0;strokeWidth=1;" parent="tUKbnSFkeA9dqwj0QO37-200" vertex="1">
          <mxGeometry y="30" width="40" height="19.5" as="geometry" />
        </mxCell>
        <mxCell id="tUKbnSFkeA9dqwj0QO37-202" style="edgeStyle=orthogonalEdgeStyle;rounded=1;orthogonalLoop=1;jettySize=auto;html=1;exitX=0.5;exitY=1;exitDx=0;exitDy=0;fontSize=9;" parent="tUKbnSFkeA9dqwj0QO37-200" source="tUKbnSFkeA9dqwj0QO37-201" target="tUKbnSFkeA9dqwj0QO37-201" edge="1">
          <mxGeometry relative="1" as="geometry" />
        </mxCell>
        <mxCell id="tUKbnSFkeA9dqwj0QO37-257" style="edgeStyle=orthogonalEdgeStyle;rounded=1;orthogonalLoop=1;jettySize=auto;html=1;exitX=1;exitY=0.25;exitDx=0;exitDy=0;entryX=0.016;entryY=0.54;entryDx=0;entryDy=0;entryPerimeter=0;fontSize=8;endArrow=block;endFill=0;" parent="1" source="tUKbnSFkeA9dqwj0QO37-205" target="tUKbnSFkeA9dqwj0QO37-200" edge="1">
          <mxGeometry relative="1" as="geometry" />
        </mxCell>
        <mxCell id="tUKbnSFkeA9dqwj0QO37-205" value="Surface_Data" style="swimlane;childLayout=stackLayout;horizontal=1;startSize=30;horizontalStack=0;rounded=0;fontSize=9;fontStyle=1;strokeWidth=1;resizeParent=0;resizeLast=1;shadow=0;dashed=0;align=left;glass=0;sketch=0;strokeColor=default;fillColor=none;" parent="1" vertex="1">
          <mxGeometry x="448.07" y="581.93" width="70" height="110.88" as="geometry" />
        </mxCell>
        <mxCell id="tUKbnSFkeA9dqwj0QO37-206" value="Base Color&#xa;Normal&#xa;Metallic&#xa;Roughness&#xa;Specular&#xa;...&#xa;" style="align=left;strokeColor=none;fillColor=none;spacingLeft=4;fontSize=9;verticalAlign=top;resizable=0;rotatable=0;part=1;rounded=1;shadow=0;glass=0;sketch=0;strokeWidth=1;" parent="tUKbnSFkeA9dqwj0QO37-205" vertex="1">
          <mxGeometry y="30" width="70" height="80.88" as="geometry" />
        </mxCell>
        <mxCell id="tUKbnSFkeA9dqwj0QO37-207" style="edgeStyle=orthogonalEdgeStyle;rounded=1;orthogonalLoop=1;jettySize=auto;html=1;exitX=0.5;exitY=1;exitDx=0;exitDy=0;fontSize=9;" parent="tUKbnSFkeA9dqwj0QO37-205" source="tUKbnSFkeA9dqwj0QO37-206" target="tUKbnSFkeA9dqwj0QO37-206" edge="1">
          <mxGeometry relative="1" as="geometry" />
        </mxCell>
        <mxCell id="tUKbnSFkeA9dqwj0QO37-210" value="Fragment Shader" style="swimlane;fontStyle=1;align=center;verticalAlign=top;childLayout=stackLayout;horizontal=1;startSize=26;horizontalStack=0;resizeParent=1;resizeParentMax=0;resizeLast=0;collapsible=1;marginBottom=0;rounded=0;shadow=0;glass=0;sketch=0;strokeColor=default;strokeWidth=1;fontSize=10;fillColor=none;swimlaneFillColor=none;" parent="1" vertex="1">
          <mxGeometry x="255.5113" y="116" width="178.52" height="120" as="geometry" />
        </mxCell>
        <mxCell id="tUKbnSFkeA9dqwj0QO37-211" value="宏定义（逻辑分支&amp;uniform声明）" style="text;strokeColor=none;fillColor=none;align=left;verticalAlign=top;spacingLeft=4;spacingRight=4;overflow=hidden;rotatable=0;points=[[0,0.5],[1,0.5]];portConstraint=eastwest;rounded=1;shadow=0;glass=0;sketch=0;strokeWidth=1;fontSize=10;noLabel=0;" parent="tUKbnSFkeA9dqwj0QO37-210" vertex="1">
          <mxGeometry y="26" width="178.52" height="26" as="geometry" />
        </mxCell>
        <mxCell id="tUKbnSFkeA9dqwj0QO37-212" value="" style="line;strokeWidth=1;fillColor=none;align=left;verticalAlign=middle;spacingTop=-1;spacingLeft=3;spacingRight=3;rotatable=0;labelPosition=right;points=[];portConstraint=eastwest;strokeColor=inherit;rounded=1;shadow=0;glass=0;sketch=0;fontSize=12;" parent="tUKbnSFkeA9dqwj0QO37-210" vertex="1">
          <mxGeometry y="52" width="178.52" height="8" as="geometry" />
        </mxCell>
        <mxCell id="tUKbnSFkeA9dqwj0QO37-213" value="自定义接口(material_to_surface_data)" style="text;strokeColor=none;fillColor=none;align=left;verticalAlign=top;spacingLeft=4;spacingRight=4;overflow=hidden;rotatable=0;points=[[0,0.5],[1,0.5]];portConstraint=eastwest;rounded=1;shadow=0;glass=0;sketch=0;strokeWidth=1;fontSize=10;" parent="tUKbnSFkeA9dqwj0QO37-210" vertex="1">
          <mxGeometry y="60" width="178.52" height="26" as="geometry" />
        </mxCell>
        <mxCell id="tUKbnSFkeA9dqwj0QO37-214" value="" style="line;strokeWidth=1;fillColor=none;align=left;verticalAlign=middle;spacingTop=-1;spacingLeft=3;spacingRight=3;rotatable=0;labelPosition=right;points=[];portConstraint=eastwest;strokeColor=inherit;rounded=1;shadow=0;glass=0;sketch=0;fontSize=12;" parent="tUKbnSFkeA9dqwj0QO37-210" vertex="1">
          <mxGeometry y="86" width="178.52" height="8" as="geometry" />
        </mxCell>
        <mxCell id="tUKbnSFkeA9dqwj0QO37-215" value="uniform数据(材质参数)" style="text;strokeColor=none;fillColor=none;align=left;verticalAlign=top;spacingLeft=4;spacingRight=4;overflow=hidden;rotatable=0;points=[[0,0.5],[1,0.5]];portConstraint=eastwest;rounded=1;shadow=0;glass=0;sketch=0;strokeWidth=1;fontSize=10;" parent="tUKbnSFkeA9dqwj0QO37-210" vertex="1">
          <mxGeometry y="94" width="178.52" height="26" as="geometry" />
        </mxCell>
        <mxCell id="tUKbnSFkeA9dqwj0QO37-216" value="" style="rounded=1;whiteSpace=wrap;html=1;shadow=0;glass=0;sketch=0;strokeColor=default;strokeWidth=1;fontSize=12;fillColor=none;rotation=-90;" parent="1" vertex="1">
          <mxGeometry x="11.67" y="387.1" width="117.18" height="20" as="geometry" />
        </mxCell>
        <mxCell id="tUKbnSFkeA9dqwj0QO37-217" value="Vertex/Geometry" style="text;html=1;strokeColor=none;fillColor=none;align=center;verticalAlign=middle;whiteSpace=wrap;rounded=0;shadow=0;glass=0;sketch=0;fontSize=5;rotation=270;" parent="1" vertex="1">
          <mxGeometry x="34" y="384.43" width="70" height="30" as="geometry" />
        </mxCell>
        <mxCell id="tUKbnSFkeA9dqwj0QO37-249" value="调用primitve_to_vertex_data" style="text;strokeColor=none;fillColor=none;align=left;verticalAlign=top;spacingLeft=4;spacingRight=4;overflow=hidden;rotatable=0;points=[[0,0.5],[1,0.5]];portConstraint=eastwest;rounded=1;shadow=0;glass=0;sketch=0;strokeWidth=1;fontSize=10;" parent="1" vertex="1">
          <mxGeometry x="489" y="289.587" width="178.52" height="26" as="geometry" />
        </mxCell>
        <mxCell id="tUKbnSFkeA9dqwj0QO37-252" value="调用material_to_surface_data" style="text;strokeColor=none;fillColor=none;align=left;verticalAlign=top;spacingLeft=4;spacingRight=4;overflow=hidden;rotatable=0;points=[[0,0.5],[1,0.5]];portConstraint=eastwest;rounded=1;shadow=0;glass=0;sketch=0;strokeWidth=1;fontSize=10;" parent="1" vertex="1">
          <mxGeometry x="489" y="419.42699999999996" width="178.52" height="26" as="geometry" />
        </mxCell>
        <mxCell id="tUKbnSFkeA9dqwj0QO37-259" value="shader预处理" style="text;html=1;strokeColor=none;fillColor=none;align=center;verticalAlign=middle;whiteSpace=wrap;rounded=0;shadow=0;glass=0;sketch=0;strokeWidth=1;fontSize=8;" parent="1" vertex="1">
          <mxGeometry x="25" y="90.84" width="141.76" height="30" as="geometry" />
        </mxCell>
        <mxCell id="tUKbnSFkeA9dqwj0QO37-269" style="edgeStyle=orthogonalEdgeStyle;rounded=1;orthogonalLoop=1;jettySize=auto;html=1;entryX=0.5;entryY=0;entryDx=0;entryDy=0;fontSize=8;endArrow=classic;endFill=1;" parent="1" source="tUKbnSFkeA9dqwj0QO37-260" target="tUKbnSFkeA9dqwj0QO37-266" edge="1">
          <mxGeometry relative="1" as="geometry" />
        </mxCell>
        <mxCell id="tUKbnSFkeA9dqwj0QO37-260" value="&lt;b style=&quot;color: rgb(0, 0, 0); font-size: 11px;&quot;&gt;材质配置文件&lt;/b&gt;" style="rounded=1;whiteSpace=wrap;html=1;shadow=0;glass=0;sketch=0;fontSize=5;fillColor=#f5f5f5;fontColor=#333333;strokeColor=#666666;" parent="1" vertex="1">
          <mxGeometry x="85" y="5.84" width="320" height="20" as="geometry" />
        </mxCell>
        <mxCell id="tUKbnSFkeA9dqwj0QO37-261" value="选择BxDF" style="text;strokeColor=none;fillColor=none;align=left;verticalAlign=top;spacingLeft=4;spacingRight=4;overflow=hidden;rotatable=0;points=[[0,0.5],[1,0.5]];portConstraint=eastwest;rounded=1;shadow=0;glass=0;sketch=0;strokeWidth=1;fontSize=11;" parent="1" vertex="1">
          <mxGeometry x="524" y="576.43" width="59" height="26" as="geometry" />
        </mxCell>
        <mxCell id="tUKbnSFkeA9dqwj0QO37-290" style="edgeStyle=orthogonalEdgeStyle;rounded=1;orthogonalLoop=1;jettySize=auto;html=1;fontSize=8;endArrow=classic;endFill=1;entryX=0.026;entryY=0.492;entryDx=0;entryDy=0;entryPerimeter=0;" parent="1" source="tUKbnSFkeA9dqwj0QO37-266" target="tUKbnSFkeA9dqwj0QO37-285" edge="1">
          <mxGeometry relative="1" as="geometry">
            <mxPoint x="310" y="55.84" as="targetPoint" />
          </mxGeometry>
        </mxCell>
        <mxCell id="tUKbnSFkeA9dqwj0QO37-266" value="解析" style="rounded=0;whiteSpace=wrap;html=1;fontSize=12;glass=0;strokeWidth=1;shadow=1;" parent="1" vertex="1">
          <mxGeometry x="207.13" y="45.84" width="75.74" height="20" as="geometry" />
        </mxCell>
        <mxCell id="tUKbnSFkeA9dqwj0QO37-293" style="edgeStyle=orthogonalEdgeStyle;rounded=1;orthogonalLoop=1;jettySize=auto;html=1;exitX=0.5;exitY=1;exitDx=0;exitDy=0;exitPerimeter=0;fontSize=8;endArrow=classic;endFill=1;" parent="1" source="tUKbnSFkeA9dqwj0QO37-285" edge="1">
          <mxGeometry relative="1" as="geometry">
            <mxPoint x="363.3103448275863" y="95.84" as="targetPoint" />
          </mxGeometry>
        </mxCell>
        <mxCell id="tUKbnSFkeA9dqwj0QO37-306" style="edgeStyle=orthogonalEdgeStyle;rounded=1;orthogonalLoop=1;jettySize=auto;html=1;entryX=0.5;entryY=0;entryDx=0;entryDy=0;fontSize=8;endArrow=classic;endFill=1;" parent="1" source="tUKbnSFkeA9dqwj0QO37-285" target="tUKbnSFkeA9dqwj0QO37-298" edge="1">
          <mxGeometry relative="1" as="geometry" />
        </mxCell>
        <mxCell id="tUKbnSFkeA9dqwj0QO37-285" value="毛发" style="strokeWidth=1;html=1;shape=mxgraph.flowchart.decision;whiteSpace=wrap;rounded=1;shadow=0;glass=0;sketch=0;strokeColor=#030303;fontSize=12;fillColor=default;" parent="1" vertex="1">
          <mxGeometry x="313" y="40.84" width="100" height="30" as="geometry" />
        </mxCell>
        <mxCell id="tUKbnSFkeA9dqwj0QO37-307" style="edgeStyle=orthogonalEdgeStyle;rounded=1;orthogonalLoop=1;jettySize=auto;html=1;entryX=0.5;entryY=0;entryDx=0;entryDy=0;fontSize=8;endArrow=classic;endFill=1;" parent="1" source="tUKbnSFkeA9dqwj0QO37-287" target="tUKbnSFkeA9dqwj0QO37-289" edge="1">
          <mxGeometry relative="1" as="geometry" />
        </mxCell>
        <mxCell id="tUKbnSFkeA9dqwj0QO37-287" value="毛发渲染管线" style="rounded=0;whiteSpace=wrap;html=1;fontSize=12;glass=0;strokeWidth=1;shadow=1;" parent="1" vertex="1">
          <mxGeometry x="479.99999999999994" y="175.84000000000003" width="140" height="20.078699999999998" as="geometry" />
        </mxCell>
        <mxCell id="tUKbnSFkeA9dqwj0QO37-289" value="场景颜色" style="rounded=1;whiteSpace=wrap;html=1;shadow=0;glass=0;sketch=0;fontSize=5;fillColor=#f5f5f5;fontColor=#333333;strokeColor=#666666;" parent="1" vertex="1">
          <mxGeometry x="489.99999999999994" y="216" width="120" height="20" as="geometry" />
        </mxCell>
        <mxCell id="tUKbnSFkeA9dqwj0QO37-291" value="是" style="text;html=1;strokeColor=none;fillColor=none;align=center;verticalAlign=middle;whiteSpace=wrap;rounded=0;shadow=0;glass=0;dashed=1;sketch=0;fontSize=12;" parent="1" vertex="1">
          <mxGeometry x="397.60690000000005" y="32.841699999999996" width="60" height="30" as="geometry" />
        </mxCell>
        <mxCell id="tUKbnSFkeA9dqwj0QO37-292" value="否" style="text;html=1;strokeColor=none;fillColor=none;align=center;verticalAlign=middle;whiteSpace=wrap;rounded=0;shadow=0;glass=0;dashed=1;sketch=0;fontSize=12;" parent="1" vertex="1">
          <mxGeometry x="320" y="65.84" width="60" height="30" as="geometry" />
        </mxCell>
        <mxCell id="tUKbnSFkeA9dqwj0QO37-297" value="毛发shader" style="text;html=1;strokeColor=none;fillColor=none;align=center;verticalAlign=middle;whiteSpace=wrap;rounded=0;shadow=0;glass=0;sketch=0;strokeWidth=1;fontSize=8;" parent="1" vertex="1">
          <mxGeometry x="478.24" y="127.84" width="141.76" height="30" as="geometry" />
        </mxCell>
        <mxCell id="tUKbnSFkeA9dqwj0QO37-309" value="Pass" style="text;html=1;strokeColor=none;fillColor=none;align=center;verticalAlign=middle;whiteSpace=wrap;rounded=0;shadow=0;glass=0;sketch=0;strokeWidth=1;fontSize=8;" parent="1" vertex="1">
          <mxGeometry x="5" y="311.43" width="141.76" height="30" as="geometry" />
        </mxCell>
        <mxCell id="B5aVXFW-BJuEiM90mPMr-4" value="屏幕空间次表面散射" style="rounded=0;whiteSpace=wrap;html=1;fontSize=12;glass=0;strokeWidth=1;shadow=1;" parent="1" vertex="1">
          <mxGeometry x="432.12" y="729.43" width="133" height="20" as="geometry" />
        </mxCell>
        <mxCell id="yg6qJDh1cPCUDTVsvtTC-3" style="edgeStyle=orthogonalEdgeStyle;rounded=0;orthogonalLoop=1;jettySize=auto;html=1;exitX=1;exitY=0.5;exitDx=0;exitDy=0;exitPerimeter=0;fontSize=10;" edge="1" parent="1" source="yg6qJDh1cPCUDTVsvtTC-2">
          <mxGeometry relative="1" as="geometry">
            <mxPoint x="323" y="280" as="targetPoint" />
          </mxGeometry>
        </mxCell>
        <mxCell id="yg6qJDh1cPCUDTVsvtTC-2" value="OIT" style="strokeWidth=1;html=1;shape=mxgraph.flowchart.decision;whiteSpace=wrap;rounded=1;shadow=0;glass=0;sketch=0;strokeColor=#030303;fontSize=12;fillColor=default;" vertex="1" parent="1">
          <mxGeometry x="224" y="265" width="42" height="30" as="geometry" />
        </mxCell>
        <mxCell id="yg6qJDh1cPCUDTVsvtTC-23" style="edgeStyle=orthogonalEdgeStyle;rounded=0;orthogonalLoop=1;jettySize=auto;html=1;entryX=0.799;entryY=0;entryDx=0;entryDy=0;entryPerimeter=0;fontSize=10;" edge="1" parent="1" source="yg6qJDh1cPCUDTVsvtTC-4" target="tUKbnSFkeA9dqwj0QO37-48">
          <mxGeometry relative="1" as="geometry" />
        </mxCell>
        <mxCell id="yg6qJDh1cPCUDTVsvtTC-4" value="矩计算" style="rounded=0;whiteSpace=wrap;html=1;fontSize=12;glass=0;strokeWidth=1;shadow=1;" vertex="1" parent="1">
          <mxGeometry x="323.85" y="269.96" width="72.76" height="20.08" as="geometry" />
        </mxCell>
        <mxCell id="yg6qJDh1cPCUDTVsvtTC-9" value="是" style="text;html=1;strokeColor=none;fillColor=none;align=center;verticalAlign=middle;whiteSpace=wrap;rounded=0;shadow=0;glass=0;dashed=1;sketch=0;fontSize=12;" vertex="1" parent="1">
          <mxGeometry x="255.50690000000003" y="256.00169999999997" width="60" height="30" as="geometry" />
        </mxCell>
        <mxCell id="yg6qJDh1cPCUDTVsvtTC-10" value="否" style="text;html=1;strokeColor=none;fillColor=none;align=center;verticalAlign=middle;whiteSpace=wrap;rounded=0;shadow=0;glass=0;dashed=1;sketch=0;fontSize=12;" vertex="1" parent="1">
          <mxGeometry x="202.99690000000004" y="290.0417" width="60" height="30" as="geometry" />
        </mxCell>
        <mxCell id="yg6qJDh1cPCUDTVsvtTC-14" value="" style="edgeStyle=orthogonalEdgeStyle;rounded=0;orthogonalLoop=1;jettySize=auto;html=1;fontSize=10;" edge="1" parent="1" source="yg6qJDh1cPCUDTVsvtTC-11" target="tUKbnSFkeA9dqwj0QO37-68">
          <mxGeometry relative="1" as="geometry">
            <Array as="points">
              <mxPoint x="298" y="722" />
              <mxPoint x="298" y="722" />
            </Array>
          </mxGeometry>
        </mxCell>
        <mxCell id="yg6qJDh1cPCUDTVsvtTC-11" value="OIT" style="strokeWidth=1;html=1;shape=mxgraph.flowchart.decision;whiteSpace=wrap;rounded=1;shadow=0;glass=0;sketch=0;strokeColor=#030303;fontSize=12;fillColor=default;" vertex="1" parent="1">
          <mxGeometry x="275.39" y="653" width="44.61" height="30" as="geometry" />
        </mxCell>
        <mxCell id="yg6qJDh1cPCUDTVsvtTC-17" value="透射重建" style="rounded=0;whiteSpace=wrap;html=1;fontSize=12;glass=0;strokeWidth=1;shadow=1;" vertex="1" parent="1">
          <mxGeometry x="343" y="657.96" width="72.76" height="20.08" as="geometry" />
        </mxCell>
        <mxCell id="yg6qJDh1cPCUDTVsvtTC-19" value="是" style="text;html=1;strokeColor=none;fillColor=none;align=center;verticalAlign=middle;whiteSpace=wrap;rounded=0;shadow=0;glass=0;dashed=1;sketch=0;fontSize=12;" vertex="1" parent="1">
          <mxGeometry x="323" y="632.81" width="33" height="23.19" as="geometry" />
        </mxCell>
        <mxCell id="yg6qJDh1cPCUDTVsvtTC-20" value="否" style="text;html=1;strokeColor=none;fillColor=none;align=center;verticalAlign=middle;whiteSpace=wrap;rounded=0;shadow=0;glass=0;dashed=1;sketch=0;fontSize=12;" vertex="1" parent="1">
          <mxGeometry x="259.99690000000004" y="692.8117" width="60" height="30" as="geometry" />
        </mxCell>
        <mxCell id="yg6qJDh1cPCUDTVsvtTC-37" style="edgeStyle=orthogonalEdgeStyle;rounded=0;orthogonalLoop=1;jettySize=auto;html=1;exitX=0.5;exitY=1;exitDx=0;exitDy=0;entryX=0.857;entryY=-0.017;entryDx=0;entryDy=0;entryPerimeter=0;fontSize=10;" edge="1" parent="1" source="yg6qJDh1cPCUDTVsvtTC-24" target="tUKbnSFkeA9dqwj0QO37-68">
          <mxGeometry relative="1" as="geometry" />
        </mxCell>
        <mxCell id="yg6qJDh1cPCUDTVsvtTC-24" value="合并结果" style="rounded=0;whiteSpace=wrap;html=1;fontSize=12;glass=0;strokeWidth=1;shadow=1;" vertex="1" parent="1">
          <mxGeometry x="343" y="692.81" width="72.76" height="20.08" as="geometry" />
        </mxCell>
        <mxCell id="yg6qJDh1cPCUDTVsvtTC-27" value="" style="endArrow=classic;html=1;rounded=0;fontSize=10;exitX=1;exitY=0.5;exitDx=0;exitDy=0;exitPerimeter=0;entryX=0;entryY=0.5;entryDx=0;entryDy=0;" edge="1" parent="1" source="yg6qJDh1cPCUDTVsvtTC-11" target="yg6qJDh1cPCUDTVsvtTC-17">
          <mxGeometry width="50" height="50" relative="1" as="geometry">
            <mxPoint x="320" y="686" as="sourcePoint" />
            <mxPoint x="383" y="681" as="targetPoint" />
          </mxGeometry>
        </mxCell>
        <mxCell id="yg6qJDh1cPCUDTVsvtTC-28" value="" style="endArrow=classic;html=1;rounded=0;fontSize=10;exitX=0.5;exitY=1;exitDx=0;exitDy=0;entryX=0.5;entryY=0;entryDx=0;entryDy=0;" edge="1" parent="1" source="yg6qJDh1cPCUDTVsvtTC-17" target="yg6qJDh1cPCUDTVsvtTC-24">
          <mxGeometry width="50" height="50" relative="1" as="geometry">
            <mxPoint x="330" y="678" as="sourcePoint" />
            <mxPoint x="353" y="678" as="targetPoint" />
          </mxGeometry>
        </mxCell>
        <mxCell id="yg6qJDh1cPCUDTVsvtTC-38" value="&lt;span style=&quot;color: rgb(0, 0, 0); font-size: 11px;&quot;&gt;材质配置文件&lt;/span&gt;" style="rounded=1;whiteSpace=wrap;html=1;shadow=0;glass=0;sketch=0;fontSize=5;fillColor=#f5f5f5;fontColor=#333333;strokeColor=#666666;" vertex="1" parent="1">
          <mxGeometry x="-397" y="10.84" width="94" height="20" as="geometry" />
        </mxCell>
        <mxCell id="yg6qJDh1cPCUDTVsvtTC-41" value="&lt;font color=&quot;#000000&quot;&gt;&lt;span style=&quot;font-size: 11px;&quot;&gt;纹理&lt;/span&gt;&lt;/font&gt;" style="rounded=1;whiteSpace=wrap;html=1;shadow=0;glass=0;sketch=0;fontSize=5;fillColor=#f5f5f5;fontColor=#333333;strokeColor=#666666;" vertex="1" parent="1">
          <mxGeometry x="-298" y="10.84" width="51" height="20" as="geometry" />
        </mxCell>
        <mxCell id="yg6qJDh1cPCUDTVsvtTC-42" value="&lt;font color=&quot;#000000&quot;&gt;&lt;span style=&quot;font-size: 11px;&quot;&gt;网格&lt;/span&gt;&lt;/font&gt;" style="rounded=1;whiteSpace=wrap;html=1;shadow=0;glass=0;sketch=0;fontSize=5;fillColor=#f5f5f5;fontColor=#333333;strokeColor=#666666;" vertex="1" parent="1">
          <mxGeometry x="-243" y="10.84" width="51" height="20" as="geometry" />
        </mxCell>
        <mxCell id="yg6qJDh1cPCUDTVsvtTC-43" value="" style="rounded=1;whiteSpace=wrap;html=1;shadow=0;glass=0;sketch=0;fontSize=5;fillColor=#FCFCFC;arcSize=6;" vertex="1" parent="1">
          <mxGeometry x="-476" y="49.84" width="178" height="151" as="geometry" />
        </mxCell>
        <mxCell id="yg6qJDh1cPCUDTVsvtTC-78" style="edgeStyle=orthogonalEdgeStyle;rounded=0;orthogonalLoop=1;jettySize=auto;html=1;fontSize=10;" edge="1" parent="1" source="yg6qJDh1cPCUDTVsvtTC-44" target="yg6qJDh1cPCUDTVsvtTC-47">
          <mxGeometry relative="1" as="geometry" />
        </mxCell>
        <mxCell id="yg6qJDh1cPCUDTVsvtTC-44" value="&lt;span style=&quot;font-size: 11px;&quot;&gt;解析&lt;/span&gt;" style="rounded=0;whiteSpace=wrap;html=1;fontSize=12;glass=0;strokeWidth=1;shadow=1;" vertex="1" parent="1">
          <mxGeometry x="-446.05999999999995" y="76.04" width="118.11" height="19.685" as="geometry" />
        </mxCell>
        <mxCell id="yg6qJDh1cPCUDTVsvtTC-80" style="edgeStyle=orthogonalEdgeStyle;rounded=0;orthogonalLoop=1;jettySize=auto;html=1;fontSize=10;" edge="1" parent="1" source="yg6qJDh1cPCUDTVsvtTC-47" target="yg6qJDh1cPCUDTVsvtTC-65">
          <mxGeometry relative="1" as="geometry" />
        </mxCell>
        <mxCell id="yg6qJDh1cPCUDTVsvtTC-47" value="&lt;span style=&quot;font-size: 11px;&quot;&gt;shader预处理&lt;/span&gt;" style="rounded=0;whiteSpace=wrap;html=1;fontSize=12;glass=0;strokeWidth=1;shadow=1;" vertex="1" parent="1">
          <mxGeometry x="-446.05999999999995" y="106.84" width="118.11" height="19.685" as="geometry" />
        </mxCell>
        <mxCell id="yg6qJDh1cPCUDTVsvtTC-49" value="" style="rounded=1;whiteSpace=wrap;html=1;shadow=0;glass=0;sketch=0;fontSize=5;fillColor=#FCFCFC;arcSize=6;fontStyle=1" vertex="1" parent="1">
          <mxGeometry x="-603" y="48.269999999999996" width="115" height="214.57" as="geometry" />
        </mxCell>
        <mxCell id="yg6qJDh1cPCUDTVsvtTC-51" value="&lt;span style=&quot;color: rgb(0, 0, 0); font-size: 11px;&quot;&gt;各类BxDF&lt;/span&gt;" style="rounded=1;whiteSpace=wrap;html=1;shadow=0;glass=0;sketch=0;fontSize=5;fillColor=#f5f5f5;fontColor=#333333;strokeColor=#666666;" vertex="1" parent="1">
          <mxGeometry x="-584.87" y="72.10000000000001" width="78.74" height="23.622" as="geometry" />
        </mxCell>
        <mxCell id="yg6qJDh1cPCUDTVsvtTC-53" value="&lt;font color=&quot;#000000&quot;&gt;&lt;span style=&quot;font-size: 11px;&quot;&gt;折射/透射计算&lt;/span&gt;&lt;/font&gt;" style="rounded=1;whiteSpace=wrap;html=1;shadow=0;glass=0;sketch=0;fontSize=5;fillColor=#f5f5f5;fontColor=#333333;strokeColor=#666666;" vertex="1" parent="1">
          <mxGeometry x="-584.87" y="162.68" width="78.74" height="23.622" as="geometry" />
        </mxCell>
        <mxCell id="yg6qJDh1cPCUDTVsvtTC-54" value="&lt;span style=&quot;color: rgb(0, 0, 0); font-size: 11px;&quot;&gt;毛发&lt;/span&gt;" style="rounded=1;whiteSpace=wrap;html=1;shadow=0;glass=0;sketch=0;fontSize=5;fillColor=#f5f5f5;fontColor=#333333;strokeColor=#666666;" vertex="1" parent="1">
          <mxGeometry x="-584.87" y="193.84" width="78.74" height="23.622" as="geometry" />
        </mxCell>
        <mxCell id="yg6qJDh1cPCUDTVsvtTC-55" value="&lt;span style=&quot;color: rgb(0, 0, 0); font-size: 11px;&quot;&gt;OIT&lt;/span&gt;" style="rounded=1;whiteSpace=wrap;html=1;shadow=0;glass=0;sketch=0;fontSize=5;fillColor=#f5f5f5;fontColor=#333333;strokeColor=#666666;" vertex="1" parent="1">
          <mxGeometry x="-584.87" y="132.29000000000002" width="78.74" height="23.622" as="geometry" />
        </mxCell>
        <mxCell id="yg6qJDh1cPCUDTVsvtTC-57" value="&lt;span style=&quot;color: rgb(0, 0, 0); font-size: 11px;&quot;&gt;次表面散射&lt;/span&gt;" style="rounded=1;whiteSpace=wrap;html=1;shadow=0;glass=0;sketch=0;fontSize=5;fillColor=#f5f5f5;fontColor=#333333;strokeColor=#666666;" vertex="1" parent="1">
          <mxGeometry x="-584.87" y="222.84" width="78.74" height="23.622" as="geometry" />
        </mxCell>
        <mxCell id="yg6qJDh1cPCUDTVsvtTC-58" value="&lt;b&gt;材质算法库&lt;/b&gt;" style="text;html=1;strokeColor=none;fillColor=none;align=center;verticalAlign=middle;whiteSpace=wrap;rounded=0;fontSize=10;" vertex="1" parent="1">
          <mxGeometry x="-603" y="46.099999999999994" width="73" height="30" as="geometry" />
        </mxCell>
        <mxCell id="yg6qJDh1cPCUDTVsvtTC-59" value="&lt;b&gt;配置解析/预处理模块&lt;/b&gt;" style="text;html=1;strokeColor=none;fillColor=none;align=center;verticalAlign=middle;whiteSpace=wrap;rounded=0;fontSize=10;" vertex="1" parent="1">
          <mxGeometry x="-473" y="46.099999999999994" width="124" height="30" as="geometry" />
        </mxCell>
        <mxCell id="yg6qJDh1cPCUDTVsvtTC-60" value="" style="rounded=1;whiteSpace=wrap;html=1;shadow=0;glass=0;sketch=0;fontSize=5;fillColor=#FCFCFC;arcSize=6;" vertex="1" parent="1">
          <mxGeometry x="-476" y="208.84" width="241" height="105" as="geometry" />
        </mxCell>
        <mxCell id="yg6qJDh1cPCUDTVsvtTC-63" value="&lt;b&gt;绘制指令服务&lt;/b&gt;" style="text;html=1;strokeColor=none;fillColor=none;align=center;verticalAlign=middle;whiteSpace=wrap;rounded=0;fontSize=10;" vertex="1" parent="1">
          <mxGeometry x="-488.5" y="204.84" width="124" height="30" as="geometry" />
        </mxCell>
        <mxCell id="yg6qJDh1cPCUDTVsvtTC-64" value="Pass缓存" style="shape=cube;whiteSpace=wrap;html=1;boundedLbl=1;backgroundOutline=1;darkOpacity=0.05;darkOpacity2=0.1;fontSize=10;size=9;" vertex="1" parent="1">
          <mxGeometry x="-464" y="232.26999999999998" width="75" height="35.08" as="geometry" />
        </mxCell>
        <mxCell id="yg6qJDh1cPCUDTVsvtTC-81" style="edgeStyle=orthogonalEdgeStyle;rounded=0;orthogonalLoop=1;jettySize=auto;html=1;fontSize=10;" edge="1" parent="1" source="yg6qJDh1cPCUDTVsvtTC-65" target="yg6qJDh1cPCUDTVsvtTC-48">
          <mxGeometry relative="1" as="geometry" />
        </mxCell>
        <mxCell id="yg6qJDh1cPCUDTVsvtTC-65" value="&lt;span style=&quot;font-size: 11px;&quot;&gt;初始化Pass&lt;/span&gt;" style="rounded=0;whiteSpace=wrap;html=1;fontSize=12;glass=0;strokeWidth=1;shadow=1;" vertex="1" parent="1">
          <mxGeometry x="-446.05999999999995" y="138.1" width="118.11" height="19.685" as="geometry" />
        </mxCell>
        <mxCell id="yg6qJDh1cPCUDTVsvtTC-89" style="edgeStyle=orthogonalEdgeStyle;rounded=0;orthogonalLoop=1;jettySize=auto;html=1;entryX=0.5;entryY=0;entryDx=0;entryDy=0;dashed=1;fontSize=10;" edge="1" parent="1" source="yg6qJDh1cPCUDTVsvtTC-67" target="yg6qJDh1cPCUDTVsvtTC-68">
          <mxGeometry relative="1" as="geometry" />
        </mxCell>
        <mxCell id="yg6qJDh1cPCUDTVsvtTC-67" value="&lt;span style=&quot;font-size: 11px;&quot;&gt;收集绘制对象&lt;/span&gt;" style="rounded=0;whiteSpace=wrap;html=1;fontSize=12;glass=0;strokeWidth=1;shadow=1;" vertex="1" parent="1">
          <mxGeometry x="-366.5" y="217.46" width="115" height="20" as="geometry" />
        </mxCell>
        <mxCell id="yg6qJDh1cPCUDTVsvtTC-90" style="edgeStyle=orthogonalEdgeStyle;rounded=0;orthogonalLoop=1;jettySize=auto;html=1;entryX=0.5;entryY=0;entryDx=0;entryDy=0;dashed=1;fontSize=10;" edge="1" parent="1" source="yg6qJDh1cPCUDTVsvtTC-68" target="yg6qJDh1cPCUDTVsvtTC-88">
          <mxGeometry relative="1" as="geometry" />
        </mxCell>
        <mxCell id="yg6qJDh1cPCUDTVsvtTC-68" value="&lt;span style=&quot;font-size: 11px;&quot;&gt;合并绘制批次&lt;/span&gt;" style="rounded=0;whiteSpace=wrap;html=1;fontSize=12;glass=0;strokeWidth=1;shadow=1;" vertex="1" parent="1">
          <mxGeometry x="-366.5" y="247.46" width="115" height="20" as="geometry" />
        </mxCell>
        <mxCell id="yg6qJDh1cPCUDTVsvtTC-70" value="" style="rounded=1;whiteSpace=wrap;html=1;shadow=0;glass=0;sketch=0;fontSize=5;fillColor=#FCFCFC;arcSize=6;" vertex="1" parent="1">
          <mxGeometry x="-227" y="49.84" width="143" height="183" as="geometry" />
        </mxCell>
        <mxCell id="yg6qJDh1cPCUDTVsvtTC-71" value="引擎相关模块" style="text;html=1;strokeColor=none;fillColor=none;align=center;verticalAlign=middle;whiteSpace=wrap;rounded=0;fontSize=10;" vertex="1" parent="1">
          <mxGeometry x="-245.94000000000005" y="46.099999999999994" width="124" height="30" as="geometry" />
        </mxCell>
        <mxCell id="yg6qJDh1cPCUDTVsvtTC-72" value="&lt;span style=&quot;color: rgb(0, 0, 0); font-size: 11px;&quot;&gt;环境光预计算&lt;/span&gt;" style="rounded=1;whiteSpace=wrap;html=1;shadow=0;glass=0;sketch=0;fontSize=5;fillColor=#f5f5f5;fontColor=#333333;strokeColor=#666666;" vertex="1" parent="1">
          <mxGeometry x="-584.87" y="101.64000000000004" width="78.74" height="23.622" as="geometry" />
        </mxCell>
        <mxCell id="yg6qJDh1cPCUDTVsvtTC-207" style="edgeStyle=orthogonalEdgeStyle;rounded=0;orthogonalLoop=1;jettySize=auto;html=1;entryX=0.516;entryY=-0.035;entryDx=0;entryDy=0;entryPerimeter=0;dashed=1;fontSize=11;fontColor=#0D0600;" edge="1" parent="1" source="yg6qJDh1cPCUDTVsvtTC-73" target="yg6qJDh1cPCUDTVsvtTC-161">
          <mxGeometry relative="1" as="geometry" />
        </mxCell>
        <mxCell id="yg6qJDh1cPCUDTVsvtTC-73" value="" style="rounded=1;whiteSpace=wrap;html=1;shadow=0;glass=0;sketch=0;fontSize=5;fillColor=#FCFCFC;arcSize=6;" vertex="1" parent="1">
          <mxGeometry x="-518" y="335.84" width="412" height="137" as="geometry" />
        </mxCell>
        <mxCell id="yg6qJDh1cPCUDTVsvtTC-201" style="edgeStyle=orthogonalEdgeStyle;rounded=0;orthogonalLoop=1;jettySize=auto;html=1;exitX=0;exitY=0;exitDx=84.5;exitDy=4.5;exitPerimeter=0;entryX=0;entryY=0.5;entryDx=0;entryDy=0;dashed=1;fontSize=11;fontColor=#0D0600;" edge="1" parent="1" source="yg6qJDh1cPCUDTVsvtTC-75" target="yg6qJDh1cPCUDTVsvtTC-194">
          <mxGeometry relative="1" as="geometry">
            <Array as="points">
              <mxPoint x="-379" y="204.84" />
              <mxPoint x="-289" y="204.84" />
              <mxPoint x="-289" y="122.84" />
            </Array>
          </mxGeometry>
        </mxCell>
        <mxCell id="yg6qJDh1cPCUDTVsvtTC-75" value="绘制对象缓存" style="shape=cube;whiteSpace=wrap;html=1;boundedLbl=1;backgroundOutline=1;darkOpacity=0.05;darkOpacity2=0.1;fontSize=10;size=9;" vertex="1" parent="1">
          <mxGeometry x="-464" y="271.34999999999997" width="89" height="35.08" as="geometry" />
        </mxCell>
        <mxCell id="yg6qJDh1cPCUDTVsvtTC-48" value="&lt;span style=&quot;font-size: 11px;&quot;&gt;设置Pass绘制状态&lt;/span&gt;" style="rounded=0;whiteSpace=wrap;html=1;fontSize=12;glass=0;strokeWidth=1;shadow=1;" vertex="1" parent="1">
          <mxGeometry x="-446.05999999999995" y="169.84" width="118.11" height="19.685" as="geometry" />
        </mxCell>
        <mxCell id="yg6qJDh1cPCUDTVsvtTC-85" value="" style="edgeStyle=elbowEdgeStyle;elbow=vertical;endArrow=classic;html=1;curved=0;rounded=0;endSize=8;startSize=8;fontSize=10;exitX=0;exitY=0.5;exitDx=0;exitDy=0;entryX=0;entryY=0;entryDx=0;entryDy=13.04;entryPerimeter=0;dashed=1;" edge="1" parent="1" source="yg6qJDh1cPCUDTVsvtTC-65" target="yg6qJDh1cPCUDTVsvtTC-64">
          <mxGeometry width="50" height="50" relative="1" as="geometry">
            <mxPoint x="-476" y="161.68" as="sourcePoint" />
            <mxPoint x="-426" y="111.68" as="targetPoint" />
            <Array as="points">
              <mxPoint x="-482" y="195.84" />
            </Array>
          </mxGeometry>
        </mxCell>
        <mxCell id="yg6qJDh1cPCUDTVsvtTC-203" style="edgeStyle=orthogonalEdgeStyle;rounded=0;orthogonalLoop=1;jettySize=auto;html=1;dashed=1;fontSize=11;fontColor=#0D0600;" edge="1" parent="1" source="yg6qJDh1cPCUDTVsvtTC-88" target="yg6qJDh1cPCUDTVsvtTC-198">
          <mxGeometry relative="1" as="geometry" />
        </mxCell>
        <mxCell id="yg6qJDh1cPCUDTVsvtTC-88" value="&lt;span style=&quot;font-size: 11px;&quot;&gt;生成绘制指令&lt;/span&gt;" style="rounded=0;whiteSpace=wrap;html=1;fontSize=12;glass=0;strokeWidth=1;shadow=1;" vertex="1" parent="1">
          <mxGeometry x="-366.5" y="277.51" width="115" height="20" as="geometry" />
        </mxCell>
        <mxCell id="yg6qJDh1cPCUDTVsvtTC-91" value="&lt;b&gt;材质渲染子管线&lt;/b&gt;" style="text;html=1;strokeColor=none;fillColor=none;align=center;verticalAlign=middle;whiteSpace=wrap;rounded=0;fontSize=10;" vertex="1" parent="1">
          <mxGeometry x="-521" y="331.4" width="124" height="30" as="geometry" />
        </mxCell>
        <mxCell id="yg6qJDh1cPCUDTVsvtTC-98" style="edgeStyle=orthogonalEdgeStyle;rounded=0;orthogonalLoop=1;jettySize=auto;html=1;fontSize=10;" edge="1" parent="1" source="yg6qJDh1cPCUDTVsvtTC-92" target="yg6qJDh1cPCUDTVsvtTC-93">
          <mxGeometry relative="1" as="geometry" />
        </mxCell>
        <mxCell id="yg6qJDh1cPCUDTVsvtTC-92" value="&lt;span style=&quot;font-size: 11px;&quot;&gt;不透明物体&lt;/span&gt;" style="rounded=0;whiteSpace=wrap;html=1;fontSize=12;glass=0;strokeWidth=1;shadow=1;" vertex="1" parent="1">
          <mxGeometry x="-504" y="357.94" width="69" height="30.9" as="geometry" />
        </mxCell>
        <mxCell id="yg6qJDh1cPCUDTVsvtTC-113" style="edgeStyle=orthogonalEdgeStyle;rounded=0;orthogonalLoop=1;jettySize=auto;html=1;fontSize=10;" edge="1" parent="1" source="yg6qJDh1cPCUDTVsvtTC-93" target="yg6qJDh1cPCUDTVsvtTC-95">
          <mxGeometry relative="1" as="geometry" />
        </mxCell>
        <mxCell id="yg6qJDh1cPCUDTVsvtTC-93" value="&lt;span style=&quot;font-size: 11px;&quot;&gt;延迟光照&lt;/span&gt;" style="rounded=0;whiteSpace=wrap;html=1;fontSize=12;glass=0;strokeWidth=1;shadow=1;" vertex="1" parent="1">
          <mxGeometry x="-418" y="357.94" width="69" height="30.9" as="geometry" />
        </mxCell>
        <mxCell id="yg6qJDh1cPCUDTVsvtTC-143" style="edgeStyle=orthogonalEdgeStyle;rounded=0;orthogonalLoop=1;jettySize=auto;html=1;entryX=-0.017;entryY=0.625;entryDx=0;entryDy=0;entryPerimeter=0;fontSize=11;" edge="1" parent="1" source="yg6qJDh1cPCUDTVsvtTC-95">
          <mxGeometry relative="1" as="geometry">
            <mxPoint x="-232.88699999999994" y="373.09" as="targetPoint" />
          </mxGeometry>
        </mxCell>
        <mxCell id="yg6qJDh1cPCUDTVsvtTC-147" style="edgeStyle=orthogonalEdgeStyle;rounded=0;orthogonalLoop=1;jettySize=auto;html=1;entryX=0;entryY=0.5;entryDx=0;entryDy=0;fontSize=11;exitX=0.5;exitY=1;exitDx=0;exitDy=0;dashed=1;" edge="1" parent="1" source="yg6qJDh1cPCUDTVsvtTC-88" target="yg6qJDh1cPCUDTVsvtTC-92">
          <mxGeometry relative="1" as="geometry">
            <Array as="points">
              <mxPoint x="-309" y="322.84" />
              <mxPoint x="-524" y="322.84" />
              <mxPoint x="-524" y="373.84" />
            </Array>
          </mxGeometry>
        </mxCell>
        <mxCell id="yg6qJDh1cPCUDTVsvtTC-95" value="&lt;span style=&quot;font-size: 11px;&quot;&gt;屏幕空间次表面散射&lt;/span&gt;" style="rounded=0;whiteSpace=wrap;html=1;fontSize=12;glass=0;strokeWidth=1;shadow=1;" vertex="1" parent="1">
          <mxGeometry x="-335" y="357.94" width="83" height="30.9" as="geometry" />
        </mxCell>
        <mxCell id="yg6qJDh1cPCUDTVsvtTC-111" style="edgeStyle=orthogonalEdgeStyle;rounded=0;orthogonalLoop=1;jettySize=auto;html=1;fontSize=10;exitX=1;exitY=0.5;exitDx=0;exitDy=0;" edge="1" parent="1" source="yg6qJDh1cPCUDTVsvtTC-175">
          <mxGeometry relative="1" as="geometry">
            <mxPoint x="-120" y="365.8400000000002" as="sourcePoint" />
            <mxPoint x="-482" y="444.84" as="targetPoint" />
            <Array as="points">
              <mxPoint x="-112" y="374.84" />
              <mxPoint x="-112" y="400.84" />
              <mxPoint x="-496" y="400.84" />
              <mxPoint x="-496" y="444.84" />
            </Array>
          </mxGeometry>
        </mxCell>
        <mxCell id="yg6qJDh1cPCUDTVsvtTC-136" value="" style="rounded=0;whiteSpace=wrap;html=1;fontSize=12;glass=0;strokeWidth=1;shadow=1;" vertex="1" parent="1">
          <mxGeometry x="-261" y="406.94" width="141" height="58.33" as="geometry" />
        </mxCell>
        <mxCell id="yg6qJDh1cPCUDTVsvtTC-137" value="&lt;span style=&quot;font-size: 11px;&quot;&gt;DOM&lt;/span&gt;" style="rounded=0;whiteSpace=wrap;html=1;fontSize=12;glass=0;strokeWidth=1;shadow=1;rotation=0;" vertex="1" parent="1">
          <mxGeometry x="-256.5" y="421.27" width="55.117999999999995" height="21.57" as="geometry" />
        </mxCell>
        <mxCell id="yg6qJDh1cPCUDTVsvtTC-138" value="&lt;span style=&quot;font-size: 11px;&quot;&gt;材质Pass&lt;/span&gt;" style="rounded=0;whiteSpace=wrap;html=1;fontSize=12;glass=0;strokeWidth=1;shadow=1;rotation=0;" vertex="1" parent="1">
          <mxGeometry x="-211.5" y="439.13" width="55.117999999999995" height="21.57" as="geometry" />
        </mxCell>
        <mxCell id="yg6qJDh1cPCUDTVsvtTC-139" value="&lt;span style=&quot;font-size: 11px;&quot;&gt;Visibility Pass&lt;/span&gt;" style="rounded=0;whiteSpace=wrap;html=1;fontSize=12;glass=0;strokeWidth=1;shadow=1;rotation=0;" vertex="1" parent="1">
          <mxGeometry x="-211.5" y="412.90999999999997" width="80.12" height="21.57" as="geometry" />
        </mxCell>
        <mxCell id="yg6qJDh1cPCUDTVsvtTC-140" value="毛发" style="text;html=1;strokeColor=none;fillColor=none;align=center;verticalAlign=middle;whiteSpace=wrap;rounded=0;fontSize=10;rotation=0;" vertex="1" parent="1">
          <mxGeometry x="-305" y="399.8" width="124" height="30" as="geometry" />
        </mxCell>
        <mxCell id="yg6qJDh1cPCUDTVsvtTC-148" value="" style="edgeStyle=elbowEdgeStyle;elbow=vertical;endArrow=classic;html=1;curved=0;rounded=0;endSize=8;startSize=8;fontSize=10;entryX=0;entryY=0.5;entryDx=0;entryDy=0;dashed=1;exitX=1;exitY=0.25;exitDx=0;exitDy=0;" edge="1" parent="1" source="yg6qJDh1cPCUDTVsvtTC-49" target="yg6qJDh1cPCUDTVsvtTC-47">
          <mxGeometry width="50" height="50" relative="1" as="geometry">
            <mxPoint x="-436.05999999999995" y="157.94250000000008" as="sourcePoint" />
            <mxPoint x="-454" y="255.31000000000003" as="targetPoint" />
            <Array as="points">
              <mxPoint x="-463" y="116.84" />
            </Array>
          </mxGeometry>
        </mxCell>
        <mxCell id="yg6qJDh1cPCUDTVsvtTC-157" style="edgeStyle=orthogonalEdgeStyle;rounded=0;orthogonalLoop=1;jettySize=auto;html=1;fontSize=11;" edge="1" parent="1" source="yg6qJDh1cPCUDTVsvtTC-149" target="yg6qJDh1cPCUDTVsvtTC-151">
          <mxGeometry relative="1" as="geometry" />
        </mxCell>
        <mxCell id="yg6qJDh1cPCUDTVsvtTC-149" value="&lt;span style=&quot;font-size: 11px;&quot;&gt;清除帧缓冲&lt;/span&gt;" style="rounded=0;whiteSpace=wrap;html=1;fontSize=12;glass=0;strokeWidth=1;shadow=1;rotation=-90;" vertex="1" parent="1">
          <mxGeometry x="-643" y="381.11" width="92" height="30.9" as="geometry" />
        </mxCell>
        <mxCell id="yg6qJDh1cPCUDTVsvtTC-151" value="&lt;span style=&quot;font-size: 11px;&quot;&gt;环境绘制&lt;/span&gt;" style="rounded=0;whiteSpace=wrap;html=1;fontSize=12;glass=0;strokeWidth=1;shadow=1;rotation=-90;" vertex="1" parent="1">
          <mxGeometry x="-596" y="381.11" width="92" height="30.9" as="geometry" />
        </mxCell>
        <mxCell id="yg6qJDh1cPCUDTVsvtTC-160" value="引擎渲染管线" style="text;html=1;strokeColor=none;fillColor=none;align=center;verticalAlign=middle;whiteSpace=wrap;rounded=0;fontSize=10;" vertex="1" parent="1">
          <mxGeometry x="-642" y="311.43" width="124" height="30" as="geometry" />
        </mxCell>
        <mxCell id="yg6qJDh1cPCUDTVsvtTC-208" style="edgeStyle=orthogonalEdgeStyle;rounded=0;orthogonalLoop=1;jettySize=auto;html=1;fontSize=11;fontColor=#0D0600;" edge="1" parent="1" source="yg6qJDh1cPCUDTVsvtTC-161">
          <mxGeometry relative="1" as="geometry">
            <mxPoint x="-39" y="405.84" as="targetPoint" />
          </mxGeometry>
        </mxCell>
        <mxCell id="yg6qJDh1cPCUDTVsvtTC-161" value="&lt;span style=&quot;font-size: 11px;&quot;&gt;后处理&lt;/span&gt;" style="rounded=0;whiteSpace=wrap;html=1;fontSize=12;glass=0;strokeWidth=1;shadow=1;rotation=-90;" vertex="1" parent="1">
          <mxGeometry x="-121.94" y="390.37" width="92" height="30.9" as="geometry" />
        </mxCell>
        <mxCell id="yg6qJDh1cPCUDTVsvtTC-162" value="&lt;span style=&quot;font-size: 11px;&quot;&gt;GUI&lt;/span&gt;" style="rounded=0;whiteSpace=wrap;html=1;fontSize=12;glass=0;strokeWidth=1;shadow=1;rotation=-90;" vertex="1" parent="1">
          <mxGeometry x="-69" y="390.27" width="92" height="30.9" as="geometry" />
        </mxCell>
        <mxCell id="yg6qJDh1cPCUDTVsvtTC-164" style="edgeStyle=orthogonalEdgeStyle;rounded=0;orthogonalLoop=1;jettySize=auto;html=1;fontSize=11;" edge="1" parent="1">
          <mxGeometry relative="1" as="geometry">
            <mxPoint x="-534.0999999999999" y="396.77743792325055" as="sourcePoint" />
            <mxPoint x="-518" y="396.77743792325055" as="targetPoint" />
          </mxGeometry>
        </mxCell>
        <mxCell id="yg6qJDh1cPCUDTVsvtTC-177" style="edgeStyle=orthogonalEdgeStyle;rounded=0;orthogonalLoop=1;jettySize=auto;html=1;exitX=1;exitY=0.5;exitDx=0;exitDy=0;entryX=0;entryY=0.5;entryDx=0;entryDy=0;fontSize=11;fontColor=#FF7003;" edge="1" parent="1" source="yg6qJDh1cPCUDTVsvtTC-170" target="yg6qJDh1cPCUDTVsvtTC-176">
          <mxGeometry relative="1" as="geometry" />
        </mxCell>
        <mxCell id="yg6qJDh1cPCUDTVsvtTC-170" value="" style="rounded=0;whiteSpace=wrap;html=1;fontSize=12;glass=0;strokeWidth=1;shadow=1;" vertex="1" parent="1">
          <mxGeometry x="-481" y="406.94000000000005" width="111" height="58" as="geometry" />
        </mxCell>
        <mxCell id="yg6qJDh1cPCUDTVsvtTC-171" value="&lt;span style=&quot;font-size: 11px;&quot;&gt;矩计算&lt;/span&gt;" style="rounded=0;whiteSpace=wrap;html=1;fontSize=12;glass=0;strokeWidth=1;shadow=1;rotation=0;" vertex="1" parent="1">
          <mxGeometry x="-476.5" y="412.14" width="55.117999999999995" height="21.57" as="geometry" />
        </mxCell>
        <mxCell id="yg6qJDh1cPCUDTVsvtTC-172" value="&lt;span style=&quot;font-size: 11px;&quot;&gt;透射重建&lt;/span&gt;" style="rounded=0;whiteSpace=wrap;html=1;fontSize=12;glass=0;strokeWidth=1;shadow=1;rotation=0;" vertex="1" parent="1">
          <mxGeometry x="-476.5" y="438.80000000000007" width="55.117999999999995" height="21.57" as="geometry" />
        </mxCell>
        <mxCell id="yg6qJDh1cPCUDTVsvtTC-173" value="&lt;span style=&quot;font-size: 11px;&quot;&gt;合并结果&lt;/span&gt;" style="rounded=0;whiteSpace=wrap;html=1;fontSize=12;glass=0;strokeWidth=1;shadow=1;rotation=0;" vertex="1" parent="1">
          <mxGeometry x="-429" y="420.37" width="55.117999999999995" height="21.57" as="geometry" />
        </mxCell>
        <mxCell id="yg6qJDh1cPCUDTVsvtTC-174" value="OIT" style="text;html=1;strokeColor=none;fillColor=none;align=center;verticalAlign=middle;whiteSpace=wrap;rounded=0;fontSize=10;rotation=0;" vertex="1" parent="1">
          <mxGeometry x="-416" y="438.79999999999995" width="41" height="30" as="geometry" />
        </mxCell>
        <mxCell id="yg6qJDh1cPCUDTVsvtTC-175" value="&lt;span style=&quot;font-size: 11px;&quot;&gt;透明（非OIT）&lt;/span&gt;" style="rounded=0;whiteSpace=wrap;html=1;fontSize=12;glass=0;strokeWidth=1;shadow=1;" vertex="1" parent="1">
          <mxGeometry x="-232" y="359.37" width="83" height="30.9" as="geometry" />
        </mxCell>
        <mxCell id="yg6qJDh1cPCUDTVsvtTC-180" style="edgeStyle=orthogonalEdgeStyle;rounded=0;orthogonalLoop=1;jettySize=auto;html=1;fontSize=11;fontColor=#FF7003;" edge="1" parent="1" source="yg6qJDh1cPCUDTVsvtTC-176" target="yg6qJDh1cPCUDTVsvtTC-136">
          <mxGeometry relative="1" as="geometry">
            <Array as="points">
              <mxPoint x="-261" y="434.84" />
              <mxPoint x="-261" y="434.84" />
            </Array>
          </mxGeometry>
        </mxCell>
        <mxCell id="yg6qJDh1cPCUDTVsvtTC-176" value="&lt;span style=&quot;font-size: 11px;&quot;&gt;透明（折射）&lt;/span&gt;" style="rounded=0;whiteSpace=wrap;html=1;fontSize=12;glass=0;strokeWidth=1;shadow=1;" vertex="1" parent="1">
          <mxGeometry x="-354" y="420.37" width="78.13" height="30.9" as="geometry" />
        </mxCell>
        <mxCell id="yg6qJDh1cPCUDTVsvtTC-187" value="&lt;font style=&quot;&quot; color=&quot;#0d0600&quot;&gt;资源管理&lt;/font&gt;" style="rounded=0;whiteSpace=wrap;html=1;strokeWidth=1;fontSize=11;fontColor=#FF7003;" vertex="1" parent="1">
          <mxGeometry x="-216" y="81.68" width="122" height="23.16" as="geometry" />
        </mxCell>
        <mxCell id="yg6qJDh1cPCUDTVsvtTC-191" value="" style="edgeStyle=elbowEdgeStyle;elbow=vertical;endArrow=classic;html=1;curved=0;rounded=0;endSize=8;startSize=8;fontSize=10;dashed=1;exitX=0.5;exitY=1;exitDx=0;exitDy=0;entryX=0.814;entryY=-0.016;entryDx=0;entryDy=0;entryPerimeter=0;" edge="1" parent="1" source="yg6qJDh1cPCUDTVsvtTC-38" target="yg6qJDh1cPCUDTVsvtTC-44">
          <mxGeometry width="50" height="50" relative="1" as="geometry">
            <mxPoint x="-478" y="111.9125" as="sourcePoint" />
            <mxPoint x="-436.05999999999995" y="126.68249999999986" as="targetPoint" />
            <Array as="points">
              <mxPoint x="-335" y="74.84" />
            </Array>
          </mxGeometry>
        </mxCell>
        <mxCell id="yg6qJDh1cPCUDTVsvtTC-193" style="edgeStyle=orthogonalEdgeStyle;rounded=0;orthogonalLoop=1;jettySize=auto;html=1;exitX=1;exitY=0.5;exitDx=0;exitDy=0;fontSize=11;fontColor=#0D0600;dashed=1;" edge="1" parent="1" source="yg6qJDh1cPCUDTVsvtTC-190">
          <mxGeometry relative="1" as="geometry">
            <mxPoint x="-141" y="81.84" as="targetPoint" />
            <Array as="points">
              <mxPoint x="-141" y="20.84" />
              <mxPoint x="-141" y="81.84" />
            </Array>
          </mxGeometry>
        </mxCell>
        <mxCell id="yg6qJDh1cPCUDTVsvtTC-194" value="&lt;font style=&quot;&quot; color=&quot;#0d0600&quot;&gt;场景管理&lt;/font&gt;" style="rounded=0;whiteSpace=wrap;html=1;strokeWidth=1;fontSize=11;fontColor=#FF7003;" vertex="1" parent="1">
          <mxGeometry x="-216" y="111.68" width="122" height="23.16" as="geometry" />
        </mxCell>
        <mxCell id="yg6qJDh1cPCUDTVsvtTC-195" value="&lt;font color=&quot;#0d0600&quot;&gt;文本处理&lt;/font&gt;" style="rounded=0;whiteSpace=wrap;html=1;strokeWidth=1;fontSize=11;fontColor=#FF7003;" vertex="1" parent="1">
          <mxGeometry x="-216" y="139.52" width="122" height="23.16" as="geometry" />
        </mxCell>
        <mxCell id="yg6qJDh1cPCUDTVsvtTC-205" style="edgeStyle=orthogonalEdgeStyle;rounded=0;orthogonalLoop=1;jettySize=auto;html=1;dashed=1;fontSize=11;fontColor=#0D0600;exitX=0;exitY=0.5;exitDx=0;exitDy=0;entryX=0.697;entryY=-0.006;entryDx=0;entryDy=0;entryPerimeter=0;" edge="1" parent="1" source="yg6qJDh1cPCUDTVsvtTC-197" target="yg6qJDh1cPCUDTVsvtTC-73">
          <mxGeometry relative="1" as="geometry">
            <mxPoint x="-231" y="334.84" as="targetPoint" />
            <Array as="points">
              <mxPoint x="-231" y="177.84" />
            </Array>
          </mxGeometry>
        </mxCell>
        <mxCell id="yg6qJDh1cPCUDTVsvtTC-197" value="&lt;font color=&quot;#0d0600&quot;&gt;光照系统&lt;/font&gt;" style="rounded=0;whiteSpace=wrap;html=1;strokeWidth=1;fontSize=11;fontColor=#FF7003;" vertex="1" parent="1">
          <mxGeometry x="-216" y="166.68" width="122" height="23.16" as="geometry" />
        </mxCell>
        <mxCell id="yg6qJDh1cPCUDTVsvtTC-198" value="&lt;font color=&quot;#0d0600&quot;&gt;缓冲对象管理&lt;/font&gt;" style="rounded=0;whiteSpace=wrap;html=1;strokeWidth=1;fontSize=11;fontColor=#FF7003;" vertex="1" parent="1">
          <mxGeometry x="-216" y="193.84" width="123" height="23.16" as="geometry" />
        </mxCell>
        <mxCell id="yg6qJDh1cPCUDTVsvtTC-202" style="edgeStyle=orthogonalEdgeStyle;rounded=0;orthogonalLoop=1;jettySize=auto;html=1;entryX=0;entryY=0.5;entryDx=0;entryDy=0;dashed=1;fontSize=11;fontColor=#0D0600;" edge="1" parent="1" source="yg6qJDh1cPCUDTVsvtTC-47" target="yg6qJDh1cPCUDTVsvtTC-195">
          <mxGeometry relative="1" as="geometry" />
        </mxCell>
        <mxCell id="yg6qJDh1cPCUDTVsvtTC-206" value="外部资源" style="text;html=1;strokeColor=none;fillColor=none;align=center;verticalAlign=middle;whiteSpace=wrap;rounded=0;fontSize=10;rotation=0;" vertex="1" parent="1">
          <mxGeometry x="-490.5" y="5.840000000000057" width="124" height="30" as="geometry" />
        </mxCell>
      </root>
    </mxGraphModel>
  </diagram>
</mxfile>
